<svg height="496pt" viewBox="-15 0 495 496" width="496pt" xmlns="http://www.w3.org/2000/svg" xmlns:xlink="http://www.w3.org/1999/xlink"><linearGradient id="lg1"><stop offset="0" stop-color="#003f8a"/><stop offset=".518" stop-color="#00d7df"/><stop offset="1" stop-color="#006df0"/></linearGradient><linearGradient id="linear0" gradientUnits="userSpaceOnUse" x1="-22.236" x2="488.476" xlink:href="#lg1" y1="502.736" y2="-7.976"/><linearGradient id="linear1" gradientUnits="userSpaceOnUse" x1="57.764" x2="568.476" xlink:href="#lg1" y1="582.736" y2="72.024"/><linearGradient id="linear2" gradientUnits="userSpaceOnUse" x1="-62.236" x2="448.476" xlink:href="#lg1" y1="462.736" y2="-47.976"/><linearGradient id="linear3" gradientUnits="userSpaceOnUse" x1="-102.236" x2="408.476" xlink:href="#lg1" y1="422.736" y2="-87.976"/><linearGradient id="linear5" gradientUnits="userSpaceOnUse" x1="-142.236" x2="368.476" xlink:href="#lg1" y1="382.736" y2="-127.976"/><linearGradient id="linear7" gradientUnits="userSpaceOnUse" x1="137.764" x2="648.476" xlink:href="#lg1" y1="662.736" y2="152.024"/><linearGradient id="linear8" gradientUnits="userSpaceOnUse" x1="17.764" x2="528.476" xlink:href="#lg1" y1="542.736" y2="32.024"/><path d="m296.5 0h-128c-4.417969 0-8 3.582031-8 8v480c0 4.417969 3.582031 8 8 8h128c4.417969 0 8-3.582031 8-8v-480c0-4.417969-3.582031-8-8-8zm-120 56h112v224h-112zm0-40h112v24h-112zm112 464h-112v-184h112zm0 0" fill="url(#linear0)"/><path d="m232.5 456c26.507812 0 48-21.492188 48-48s-21.492188-48-48-48-48 21.492188-48 48c.027344 26.5 21.5 47.972656 48 48zm0-80c17.671875 0 32 14.328125 32 32s-14.328125 32-32 32-32-14.328125-32-32 14.328125-32 32-32zm0 0" fill="url(#linear1)"/><path d="m264.5 152c4.417969 0 8-3.582031 8-8s-3.582031-8-8-8h-24v-8c0-4.417969-3.582031-8-8-8s-8 3.582031-8 8v8h-24c-4.417969 0-8 3.582031-8 8v24c0 4.417969 3.582031 8 8 8h56v8h-56c-4.417969 0-8 3.582031-8 8s3.582031 8 8 8h24v8c0 4.417969 3.582031 8 8 8s8-3.582031 8-8v-8h24c4.417969 0 8-3.582031 8-8v-24c0-4.417969-3.582031-8-8-8h-56v-8zm0 0" fill="url(#linear2)"/><path d="m136.5 0h-128c-4.417969 0-8 3.582031-8 8v480c0 4.417969 3.582031 8 8 8h128c4.417969 0 8-3.582031 8-8v-480c0-4.417969-3.582031-8-8-8zm-120 56h112v224h-112zm0-40h112v24h-112zm112 464h-112v-184h112zm0 0" fill="url(#linear3)"/><path d="m72.5 456c26.507812 0 48-21.492188 48-48s-21.492188-48-48-48-48 21.492188-48 48c.027344 26.5 21.5 47.972656 48 48zm0-80c17.671875 0 32 14.328125 32 32s-14.328125 32-32 32-32-14.328125-32-32 14.328125-32 32-32zm0 0" fill="url(#linear0)"/><path d="m104.5 152c4.417969 0 8-3.582031 8-8s-3.582031-8-8-8h-24v-8c0-4.417969-3.582031-8-8-8s-8 3.582031-8 8v8h-24c-4.417969 0-8 3.582031-8 8v24c0 4.417969 3.582031 8 8 8h56v8h-56c-4.417969 0-8 3.582031-8 8s3.582031 8 8 8h24v8c0 4.417969 3.582031 8 8 8s8-3.582031 8-8v-8h24c4.417969 0 8-3.582031 8-8v-24c0-4.417969-3.582031-8-8-8h-56v-8zm0 0" fill="url(#linear5)"/><path d="m456.5 0h-128c-4.417969 0-8 3.582031-8 8v480c0 4.417969 3.582031 8 8 8h128c4.417969 0 8-3.582031 8-8v-480c0-4.417969-3.582031-8-8-8zm-120 56h112v224h-112zm0-40h112v24h-112zm112 464h-112v-184h112zm0 0" fill="url(#linear1)"/><path d="m392.5 456c26.507812 0 48-21.492188 48-48s-21.492188-48-48-48-48 21.492188-48 48c.027344 26.5 21.5 47.972656 48 48zm0-80c17.671875 0 32 14.328125 32 32s-14.328125 32-32 32-32-14.328125-32-32 14.328125-32 32-32zm0 0" fill="url(#linear7)"/><path d="m424.5 152c4.417969 0 8-3.582031 8-8s-3.582031-8-8-8h-24v-8c0-4.417969-3.582031-8-8-8s-8 3.582031-8 8v8h-24c-4.417969 0-8 3.582031-8 8v24c0 4.417969 3.582031 8 8 8h56v8h-56c-4.417969 0-8 3.582031-8 8s3.582031 8 8 8h24v8c0 4.417969 3.582031 8 8 8s8-3.582031 8-8v-8h24c4.417969 0 8-3.582031 8-8v-24c0-4.417969-3.582031-8-8-8h-56v-8zm0 0" fill="url(#linear8)"/></svg>